<?xml version="1.0" standalone="no"?>
<!DOCTYPE svg PUBLIC "-//W3C//DTD SVG 20010904//EN"
 "http://www.w3.org/TR/2001/REC-SVG-20010904/DTD/svg10.dtd">
<svg version="1.0" xmlns="http://www.w3.org/2000/svg"
 width="1124.000000pt" height="1124.000000pt" viewBox="0 0 1124.000000 1124.000000"
 preserveAspectRatio="xMidYMid meet">
<metadata>
Created by potrace 1.11, written by Peter Selinger 2001-2013
</metadata>
<g transform="translate(0.000000,1124.000000) scale(0.100000,-0.100000)"
fill="#000000" stroke="none">
<path d="M4141 11023 c-160 -206 -263 -339 -311 -402 -14 -19 -74 -97 -133
-175 -59 -77 -115 -151 -125 -164 -9 -13 -43 -58 -75 -100 -32 -42 -64 -86
-72 -97 -36 -49 -187 -251 -198 -265 -6 -8 -20 -28 -30 -43 -10 -16 -25 -36
-32 -45 -39 -47 -285 -393 -285 -401 0 -5 -4 -11 -9 -13 -23 -9 -513 -742
-652 -976 -459 -774 -743 -1366 -952 -1982 -26 -75 -96 -302 -102 -330 -2 -8
-15 -58 -29 -110 -28 -106 -82 -344 -91 -405 -3 -22 -12 -78 -20 -125 -80
-487 -80 -1020 0 -1500 8 -47 17 -103 21 -125 3 -22 8 -43 10 -46 2 -3 6 -21
9 -40 3 -19 15 -72 26 -119 12 -47 22 -92 24 -101 2 -9 13 -49 25 -89 12 -40
23 -80 25 -89 8 -41 113 -318 162 -431 88 -199 226 -464 307 -590 13 -19 58
-89 101 -155 287 -443 685 -872 1105 -1191 279 -212 591 -394 895 -524 55 -23
119 -51 141 -61 134 -59 600 -195 764 -223 19 -3 46 -8 60 -11 65 -13 184 -32
255 -40 28 -3 68 -8 90 -10 22 -3 56 -8 75 -10 217 -26 749 -26 985 -1 17 2
62 6 100 10 39 4 77 9 85 11 8 2 38 6 65 10 43 5 85 12 245 42 202 37 484 118
710 203 338 127 741 343 1000 536 263 196 339 262 565 489 392 391 689 804
933 1296 100 202 130 272 199 459 25 69 49 134 54 145 7 18 57 202 94 345 0 3
5 23 10 45 4 22 9 45 11 50 7 29 52 285 58 336 14 104 17 129 21 179 25 286
25 732 1 880 -3 14 -7 57 -10 95 -7 78 -10 100 -31 230 -22 132 -42 239 -60
315 -69 293 -101 410 -182 650 -37 109 -145 402 -168 455 -7 17 -35 80 -61
140 -281 656 -732 1450 -1224 2155 -29 41 -67 95 -84 120 -17 24 -35 49 -39
55 -4 5 -79 109 -165 230 -87 121 -180 250 -207 287 -111 150 -489 655 -509
679 -11 14 -28 36 -36 49 -8 12 -20 28 -25 34 -6 6 -40 49 -75 96 -36 47 -70
92 -77 100 -14 17 -245 316 -312 403 -24 32 -47 59 -50 61 -9 6 -80 -61 -486
-451 -110 -105 -229 -219 -265 -253 -36 -34 -177 -171 -313 -304 -137 -132
-252 -241 -257 -241 -5 0 -125 113 -266 250 -141 138 -282 274 -313 304 -31
29 -139 133 -240 230 -101 97 -203 194 -226 216 -86 82 -213 201 -242 228
l-30 28 -162 -208z m1584 -2380 c55 -69 105 -131 111 -137 20 -22 323 -404
448 -566 70 -91 139 -180 154 -199 34 -44 302 -402 322 -431 8 -12 42 -59 74
-104 212 -291 428 -646 565 -931 63 -129 158 -359 178 -430 8 -27 18 -59 22
-70 11 -24 48 -159 55 -195 2 -14 11 -57 20 -97 44 -206 54 -529 22 -713 -3
-14 -7 -43 -11 -65 -36 -247 -152 -534 -318 -789 -32 -49 -64 -94 -70 -101 -7
-7 -21 -25 -31 -39 -67 -92 -202 -233 -314 -327 -309 -258 -632 -395 -1072
-456 -70 -10 -445 -10 -525 -1 -618 74 -1145 406 -1494 943 -61 95 -173 309
-200 385 -7 19 -17 44 -22 55 -9 23 -47 146 -54 179 -48 223 -58 310 -59 501
0 143 11 294 29 370 1 6 5 28 9 50 37 201 131 486 228 694 112 240 166 342
272 521 71 118 255 399 333 505 234 322 457 618 633 842 14 17 45 58 69 90 25
32 47 60 50 63 4 3 29 33 56 68 47 60 220 275 268 333 12 15 49 61 82 102 33
42 62 76 65 76 3 0 50 -57 105 -126z m-1915 -2347 c0 -2 -8 -10 -17 -17 -16
-13 -17 -12 -4 4 13 16 21 21 21 13z"/>
</g>
</svg>
